<svg width="42" height="43" viewBox="0 0 42 43" fill="none" xmlns="http://www.w3.org/2000/svg">
<circle cx="21" cy="21.9565" r="21" fill="#FF9900"/>
<circle cx="21" cy="21.9565" r="21" stroke="white"/>
<path d="M12.2077 22.5719C12.0692 22.4335 12 22.2258 12 22.0873C12 21.9489 12.0692 21.7412 12.2077 21.6027L13.1769 20.6335C13.4538 20.3565 13.8692 20.3565 14.1462 20.6335L14.2154 20.7027L18.0231 24.7873C18.1615 24.9258 18.3692 24.9258 18.5077 24.7873L27.7846 15.1642H27.8538V15.1642C28.1308 14.8873 28.5462 14.8873 28.8231 15.1642L29.7923 16.1335C30.0692 16.4104 30.0692 16.8258 29.7923 17.1027L18.7154 28.595C18.5769 28.7335 18.4385 28.8027 18.2308 28.8027C18.0231 28.8027 17.8846 28.7335 17.7462 28.595L12.3462 22.7796L12.2077 22.5719V22.5719Z" fill="white"/>
</svg>
