<svg width="19" height="17" viewBox="0 0 19 17" fill="none" xmlns="http://www.w3.org/2000/svg">
<path d="M18.3512 7.31152L11.2814 0.33476C10.8256 -0.116412 10.0884 -0.11056 9.63719 0.346408C9.18602 0.803377 9.19067 1.53942 9.64884 1.99059L14.7011 6.97661H1.16277C0.51975 6.97661 0 7.49636 0 8.13938C0 8.78239 0.51975 9.3022 1.16277 9.3022H14.7011L9.64884 14.2882C9.19073 14.7394 9.18723 15.4754 9.63719 15.9324C9.86508 16.1626 10.1651 16.2789 10.4651 16.2789C10.7605 16.2789 11.0558 16.1673 11.2814 15.944L18.3512 8.96724C18.5721 8.74865 18.6977 8.45093 18.6977 8.13932C18.6977 7.82782 18.5732 7.53131 18.3512 7.31152Z" fill="white"/>
</svg>
