<svg width="29" height="17" viewBox="0 0 29 17" fill="none" xmlns="http://www.w3.org/2000/svg">
<path d="M28.6554 7.33863L21.1937 0.432325C20.7328 0.00571247 19.9935 0.00571247 19.5326 0.432325C19.0717 0.858938 19.0717 1.54313 19.5326 1.96974L24.9941 7.0247H1.17404C0.521798 7.0247 0 7.50766 0 8.11136C0 8.71506 0.521798 9.19801 1.17404 9.19801H24.9941L19.5326 14.253C19.0717 14.6796 19.0717 15.3638 19.5326 15.7904C19.7587 15.9997 20.0631 16.1124 20.3588 16.1124C20.6545 16.1124 20.9589 16.0077 21.185 15.7904L28.6467 8.88409C29.1163 8.44943 29.1163 7.75719 28.6554 7.33863Z" fill="#FF9900"/>
</svg>
