<svg width="11" height="10" viewBox="0 0 11 10" fill="none" xmlns="http://www.w3.org/2000/svg">
<path d="M9.89758 6.04492H3.75037L5.49866 7.86133C5.59892 7.95898 5.67725 8.0778 5.73364 8.21777C5.79004 8.35775 5.81824 8.50586 5.81824 8.66211C5.81824 8.82487 5.79004 8.97461 5.73364 9.11133C5.67725 9.24805 5.59892 9.36849 5.49866 9.47266C5.3984 9.57682 5.28247 9.6582 5.15088 9.7168C5.01929 9.77539 4.87516 9.80469 4.71851 9.80469C4.56812 9.80469 4.42556 9.77539 4.29083 9.7168C4.15611 9.6582 4.04175 9.57682 3.94775 9.47266L0.31958 5.71289C0.21932 5.60872 0.140991 5.48665 0.0845947 5.34668C0.0281982 5.20671 0 5.05859 0 4.90234C0 4.74609 0.0281982 4.59798 0.0845947 4.45801C0.140991 4.31803 0.21932 4.19596 0.31958 4.0918L3.94775 0.332031C4.04175 0.227864 4.15611 0.146484 4.29083 0.0878906C4.42556 0.0292969 4.56812 0 4.71851 0C4.87516 0 5.01929 0.0292969 5.15088 0.0878906C5.28247 0.146484 5.3984 0.227864 5.49866 0.332031C5.59892 0.436198 5.67725 0.556641 5.73364 0.693359C5.79004 0.830078 5.81824 0.979817 5.81824 1.14258C5.81824 1.29883 5.79004 1.44531 5.73364 1.58203C5.67725 1.71875 5.59892 1.83919 5.49866 1.94336L3.75037 3.75977H9.89758C10.2046 3.75977 10.4647 3.87207 10.6777 4.09668C10.8908 4.32129 10.9973 4.58984 10.9973 4.90234C10.9973 5.21484 10.8908 5.4834 10.6777 5.70801C10.4647 5.93262 10.2046 6.04492 9.89758 6.04492Z" fill="#ECCD96"/>
</svg>
