<svg width="29" height="17" viewBox="0 0 29 17" fill="none" xmlns="http://www.w3.org/2000/svg">
<path d="M28.3158 7.78364L28.3157 7.78365L28.3193 7.78684C28.5568 8.00257 28.5677 8.35393 28.3071 8.59521L20.8454 15.5015L20.8453 15.5014L20.8385 15.508C20.7166 15.6251 20.5415 15.6904 20.3588 15.6904C20.1845 15.6904 20.0027 15.6222 19.8723 15.5015C19.6252 15.2728 19.6252 14.9267 19.8723 14.698L25.3337 9.64302L26.2704 8.77608H24.9941H1.17404C0.760819 8.77608 0.5 8.48126 0.5 8.18942C0.5 7.89758 0.760819 7.60277 1.17404 7.60277H24.9941H26.2704L25.3337 6.73582L19.8723 1.68086C19.6252 1.45215 19.6252 1.10604 19.8723 0.877336C20.1415 0.628128 20.5848 0.628128 20.854 0.877336L28.3158 7.78364Z" fill="white" stroke="white"/>
</svg>
