<svg width="10" height="22" viewBox="0 0 10 22" fill="none" xmlns="http://www.w3.org/2000/svg">
<path d="M9.17749 10.6643L2.00952 21.4872C1.84025 21.7565 1.60262 21.9195 1.29663 21.9762C0.990641 22.0329 0.713949 21.962 0.466553 21.7636C0.219157 21.5793 0.0694173 21.3206 0.017334 20.9875C-0.0347494 20.6544 0.0303548 20.3531 0.212646 20.0838L6.38452 10.7281L0.232178 2.18041C0.0498861 1.91108 -0.0217285 1.6134 0.017334 1.28737C0.0563965 0.961339 0.193115 0.692007 0.42749 0.479378C0.674886 0.280924 0.948324 0.199416 1.2478 0.234854C1.54728 0.270292 1.79468 0.422676 1.98999 0.692007L9.17749 10.6643Z" fill="#363636"/>
</svg>
