<svg width="22" height="22" viewBox="0 0 22 22" fill="none" xmlns="http://www.w3.org/2000/svg">
<path d="M21.5977 0.4023C21.0612 -0.1341 20.2008 -0.1341 19.6644 0.4023L11 9.06567L2.33563 0.4023C1.79917 -0.1341 0.938808 -0.1341 0.402346 0.4023C-0.134115 0.9387 -0.134115 1.79897 0.402346 2.33537L9.06671 10.9987L0.402346 19.6621C-0.134115 20.1985 -0.134115 21.0588 0.402346 21.5952C0.665516 21.8583 1.01978 22 1.36393 22C1.70807 22 2.06234 21.8684 2.32551 21.5952L10.9899 12.9318L19.6542 21.5952C19.9174 21.8583 20.2717 22 20.6158 22C20.9701 22 21.3142 21.8684 21.5774 21.5952C22.1139 21.0588 22.1139 20.1985 21.5774 19.6621L12.9333 10.9987L21.5977 2.33537C22.1341 1.79897 22.1341 0.9387 21.5977 0.4023Z" fill="#555555"/>
</svg>
