<svg width="12" height="12" viewBox="0 0 12 12" fill="none" xmlns="http://www.w3.org/2000/svg">
<path d="M11.7805 0.219436C11.4879 -0.0731455 11.0186 -0.0731455 10.726 0.219436L6 4.94491L1.27398 0.219436C0.981367 -0.0731455 0.512077 -0.0731455 0.219462 0.219436C-0.0731539 0.512018 -0.0731539 0.981254 0.219462 1.27384L4.94548 5.99931L0.219462 10.7248C-0.0731539 11.0174 -0.0731539 11.4866 0.219462 11.7792C0.363009 11.9227 0.556246 12 0.743961 12C0.931677 12 1.12491 11.9282 1.26846 11.7792L5.99448 7.05371L10.7205 11.7792C10.864 11.9227 11.0573 12 11.245 12C11.4382 12 11.6259 11.9282 11.7695 11.7792C12.0621 11.4866 12.0621 11.0174 11.7695 10.7248L7.05452 5.99931L11.7805 1.27384C12.0732 0.981254 12.0732 0.512018 11.7805 0.219436Z" fill="#555555"/>
</svg>
