<svg width="47" height="36" viewBox="0 0 47 36" fill="none" xmlns="http://www.w3.org/2000/svg">
<path d="M20.44 25.44C20.44 28.3333 19.4133 30.76 17.36 32.72C15.3067 34.5867 12.74 35.52 9.66 35.52C6.76667 35.52 4.43333 34.6333 2.66 32.86C0.886667 30.9933 2.08616e-07 28.4733 2.08616e-07 25.3C2.08616e-07 20.0733 1.77333 15.2667 5.32 10.88C8.96 6.4 13.3467 2.94666 18.48 0.519991L20.72 5.41999C18.2933 6.91333 16.0533 8.73333 14 10.88C12.04 12.9333 10.5467 15.3133 9.52 18.02C10.5467 17.74 11.5267 17.6 12.46 17.6C14.7933 17.6 16.7067 18.3467 18.2 19.84C19.6933 21.3333 20.44 23.2 20.44 25.44ZM46.06 25.44C46.06 28.3333 45.0333 30.76 42.98 32.72C40.9267 34.5867 38.36 35.52 35.28 35.52C32.3867 35.52 30.0533 34.6333 28.28 32.86C26.5067 30.9933 25.62 28.4733 25.62 25.3C25.62 20.0733 27.3933 15.2667 30.94 10.88C34.58 6.4 38.9667 2.94666 44.1 0.519991L46.34 5.41999C43.9133 6.91333 41.6733 8.73333 39.62 10.88C37.66 12.9333 36.1667 15.3133 35.14 18.02C36.1667 17.74 37.1467 17.6 38.08 17.6C40.4133 17.6 42.3267 18.3467 43.82 19.84C45.3133 21.3333 46.06 23.2 46.06 25.44Z" fill="#FF9900"/>
</svg>
