<svg width="42" height="43" viewBox="0 0 42 43" fill="none" xmlns="http://www.w3.org/2000/svg">
<rect width="42" height="43" fill="#F5F5F5"/>
<rect x="-434.5" y="-5040.5" width="1919" height="12854" fill="#FFFAE6"/>
<rect x="-434.5" y="-5040.5" width="1919" height="12854" stroke="#787878"/>
<path d="M-435 -489H1485V1542H-435V-489Z" fill="#FFFDF3"/>
<circle cx="21" cy="21.9565" r="21" fill="#FC623B"/>
<path d="M27.7437 15.2126C27.4023 14.8712 26.8548 14.8712 26.5134 15.2126L20.9998 20.7256L15.4861 15.2126C15.1447 14.8712 14.5972 14.8712 14.2558 15.2126C13.9144 15.5539 13.9144 16.1013 14.2558 16.4427L19.7695 21.9557L14.2558 27.4688C13.9144 27.8101 13.9144 28.3576 14.2558 28.6989C14.4233 28.8664 14.6487 28.9565 14.8677 28.9565C15.0867 28.9565 15.3122 28.8728 15.4796 28.6989L20.9933 23.1859L26.507 28.6989C26.6745 28.8664 26.8999 28.9565 27.1189 28.9565C27.3444 28.9565 27.5634 28.8728 27.7308 28.6989C28.0722 28.3576 28.0722 27.8101 27.7308 27.4688L22.23 21.9557L27.7437 16.4427C28.0851 16.1013 28.0851 15.5539 27.7437 15.2126Z" fill="white" stroke="white"/>
</svg>
