<svg width="20" height="21" viewBox="0 0 20 21" fill="none" xmlns="http://www.w3.org/2000/svg">
<mask id="mask0_113_286" style="mask-type:luminance" maskUnits="userSpaceOnUse" x="0" y="0" width="20" height="21">
<path d="M19.802 0.982422H0V20.9824H19.802V0.982422Z" fill="white"/>
</mask>
<g mask="url(#mask0_113_286)">
<path d="M0 10.5824C0 6.05694 0 3.7942 1.39197 2.38831C2.78394 0.982422 5.02428 0.982422 9.50495 0.982422H10.297C14.7777 0.982422 17.018 0.982422 18.41 2.38831C19.802 3.7942 19.802 6.05694 19.802 10.5824V11.3824C19.802 15.9079 19.802 18.1706 18.41 19.5765C17.018 20.9824 14.7777 20.9824 10.297 20.9824H9.50495C5.02428 20.9824 2.78394 20.9824 1.39197 19.5765C0 18.1706 0 15.9079 0 11.3824V10.5824Z" fill="#FF9900"/>
<path d="M10.5363 15.3904C6.02312 15.3904 3.44888 12.2654 3.34161 7.06543H5.60235C5.6766 10.8821 7.34324 12.4987 8.66336 12.8321V7.06543H10.7921V10.3571C12.0958 10.2154 13.4652 8.71543 13.9273 7.06543H16.0561C15.7013 9.09877 14.2161 10.5987 13.16 11.2154C14.2161 11.7154 15.9076 13.0237 16.5512 15.3904H14.2079C13.7046 13.8071 12.4506 12.5821 10.7921 12.4154V15.3904H10.5363Z" fill="white"/>
</g>
</svg>
