<svg width="16" height="14" viewBox="0 0 16 14" fill="none" xmlns="http://www.w3.org/2000/svg">
<g clip-path="url(#clip0_0_313)">
<path d="M14.3984 7.73633H5.45703L8 10.2793C8.14583 10.416 8.25977 10.5824 8.3418 10.7783C8.42383 10.9743 8.46484 11.1816 8.46484 11.4004C8.46484 11.6283 8.42383 11.8379 8.3418 12.0293C8.25977 12.2207 8.14583 12.3893 8 12.5352C7.85417 12.681 7.68555 12.7949 7.49414 12.877C7.30273 12.959 7.0931 13 6.86523 13C6.64648 13 6.43913 12.959 6.24316 12.877C6.0472 12.7949 5.88086 12.681 5.74414 12.5352L0.466797 7.27148C0.320964 7.12565 0.207031 6.95475 0.125 6.75879C0.0429688 6.56283 0.00195312 6.35547 0.00195312 6.13672C0.00195312 5.91797 0.0429688 5.71061 0.125 5.51465C0.207031 5.31868 0.320964 5.14779 0.466797 5.00195L5.74414 -0.261719C5.88086 -0.407552 6.0472 -0.521484 6.24316 -0.603516C6.43913 -0.685547 6.64648 -0.726562 6.86523 -0.726562C7.0931 -0.726562 7.30273 -0.685547 7.49414 -0.603516C7.68555 -0.521484 7.85417 -0.407552 8 -0.261719C8.14583 -0.115885 8.25977 0.0527344 8.3418 0.244141C8.42383 0.435547 8.46484 0.645182 8.46484 0.873047C8.46484 1.0918 8.42383 1.29688 8.3418 1.48828C8.25977 1.67969 8.14583 1.84831 8 1.99414L5.45703 4.53711H14.3984C14.8451 4.53711 15.2233 4.69434 15.5332 5.00879C15.8431 5.32324 15.998 5.69922 15.998 6.13672C15.998 6.57422 15.8431 6.9502 15.5332 7.26465C15.2233 7.5791 14.8451 7.73633 14.3984 7.73633Z" fill="#ECCD96"/>
</g>
<defs>
<clipPath id="clip0_0_313">
<rect width="16" height="14" fill="white" transform="matrix(1 0 0 -1 0 14)"/>
</clipPath>
</defs>
</svg>
