<svg width="10" height="20" viewBox="0 0 10 20" fill="none" xmlns="http://www.w3.org/2000/svg">
<path d="M0.822507 10.408L7.99048 0.466581C8.15975 0.219186 8.39738 0.0694461 8.70337 0.0173628C9.00936 -0.0347204 9.28605 0.0303838 9.53345 0.212676C9.78084 0.381946 9.93058 0.619577 9.98267 0.925566C10.0347 1.23156 9.96965 1.50825 9.78735 1.75564L3.61548 10.3494L9.76782 18.201C9.95011 18.4484 10.0217 18.7218 9.98266 19.0213C9.9436 19.3207 9.80688 19.5681 9.57251 19.7635C9.32511 19.9457 9.05167 20.0206 8.75219 19.9881C8.45271 19.9555 8.20532 19.8155 8.01001 19.5681L0.822507 10.408Z" fill="#363636"/>
</svg>
