<svg width="10" height="20" viewBox="0 0 10 20" fill="none" xmlns="http://www.w3.org/2000/svg">
<path d="M0.822448 10.408L7.99042 0.46658C8.15969 0.219184 8.39732 0.0694448 8.70331 0.0173615C9.0093 -0.0347219 9.28599 0.0303823 9.53339 0.212674C9.78078 0.381945 9.93052 0.619575 9.9826 0.925565C10.0347 1.23155 9.96958 1.50825 9.78729 1.75564L3.61542 10.3494L9.76776 18.201C9.95005 18.4484 10.0217 18.7218 9.9826 19.0213C9.94354 19.3207 9.80682 19.5681 9.57245 19.7635C9.32505 19.9457 9.05161 20.0206 8.75214 19.9881C8.45266 19.9555 8.20526 19.8155 8.00995 19.5681L0.822448 10.408Z" fill="#363636"/>
</svg>
