<svg width="20" height="20" viewBox="0 0 20 20" fill="none" xmlns="http://www.w3.org/2000/svg">
<path d="M18.8889 13.8889C17.5556 13.8889 16.2222 13.6667 14.8889 13.2222C14.5556 13.1111 14.1111 13.2222 13.7778 13.4444L11.3333 15.8889C8.22227 14.3333 5.66667 11.6667 4 8.55556L6.44444 6.11111C6.77778 5.77778 6.88889 5.33333 6.66667 5C6.33333 3.77778 6.11111 2.44444 6.11111 1.11111C6.11111 0.444444 5.66667 0 5 0H1.11111C0.444444 0 0 0.444444 0 1.11111C0 11.5556 8.44444 20 18.8889 20C19.5556 20 20 19.5556 20 18.8889V15C20 14.3333 19.5556 13.8889 18.8889 13.8889ZM17.7778 10H20C20 4.44444 15.5556 0 10 0V2.22222C14.3333 2.22222 17.7778 5.66667 17.7778 10ZM13.3333 10H15.5556C15.5556 6.88889 13.1111 4.44444 10 4.44444V6.66667C11.8889 6.66667 13.3333 8.11111 13.3333 10Z" fill="white"/>
</svg>
