<svg width="21" height="20" viewBox="0 0 21 20" fill="none" xmlns="http://www.w3.org/2000/svg">
<path d="M5.8013 7.7614L5.75308 7.7884L5.71057 7.82392C5.38211 8.09848 4.88977 8.85208 5.32107 9.78364C5.68041 10.5598 6.48114 12.1449 7.88809 13.3391C9.26405 14.5072 10.7333 15.1354 11.6984 15.3411L11.7591 15.354H11.8144C11.8171 15.3543 11.8229 15.3549 11.8323 15.3563C11.8552 15.3596 11.8828 15.3644 11.9264 15.372C11.9339 15.3734 11.9416 15.3748 11.9497 15.3762C12.2467 15.4293 12.9586 15.5565 13.5553 14.9556C13.9383 14.57 14.2879 14.1678 14.4383 13.987C14.544 13.8896 14.8885 13.6877 15.3243 13.8366C16.1496 14.1185 17.1309 14.7545 17.6052 15.077C17.9723 15.3268 18.8035 15.9285 19.1781 16.2018C19.2092 16.2245 19.2826 16.2992 19.3221 16.4025C19.3536 16.485 19.3706 16.5986 19.2947 16.7628C19.1539 17.0674 18.7253 17.6488 18.1449 18.1574C17.5539 18.6753 16.9389 19 16.446 19C16.4478 19 16.4461 18.9998 16.4405 18.999C16.4185 18.996 16.3369 18.9849 16.1753 18.9482C15.9936 18.907 15.7482 18.8423 15.4482 18.7511C14.8489 18.5688 14.0447 18.2848 13.1159 17.881C11.257 17.0729 8.91682 15.7932 6.72589 13.9086C5.34779 12.7233 4.0476 11.0843 3.03514 9.55012C2.01421 8.00296 1.33126 6.63184 1.14539 5.9986L1.13238 5.9542L1.11281 5.91244C1.06653 5.81368 1.00133 5.6026 1.00002 5.3632C0.99875 5.132 1.05611 4.91108 1.20739 4.72788C1.70617 4.12386 2.23426 3.53031 3.39933 2.96074C3.50785 2.90769 3.67786 2.86091 3.84495 2.85819C4.01625 2.8554 4.10555 2.8984 4.14117 2.93002C4.58696 3.32501 5.27797 4.02228 5.74347 4.61816C5.98405 4.92597 6.27463 5.317 6.51688 5.65672C6.63801 5.82664 6.74477 5.98072 6.82611 6.10324C6.86684 6.16468 6.89938 6.21544 6.92337 6.25456C6.93975 6.28144 6.94854 6.29716 6.95222 6.30388C6.95424 6.31072 6.96339 6.33976 6.97146 6.39268C6.98155 6.45928 6.9863 6.54124 6.97954 6.62692C6.9654 6.80212 6.9084 6.94288 6.80592 7.0378C6.45799 7.35976 5.98631 7.65784 5.8013 7.7614ZM11.4222 1.01936C11.4226 1.01902 11.4229 1.01868 11.4233 1.01832C11.4318 1.01022 11.4493 1 11.4768 1C16.2172 1 19.9981 4.64542 20 9.0676C19.9993 9.06868 19.998 9.07012 19.9961 9.07204C19.9875 9.08008 19.97 9.09028 19.9425 9.09028C19.9151 9.09028 19.8975 9.08008 19.889 9.07204C19.8871 9.07012 19.8859 9.06868 19.885 9.0676C19.8832 4.59935 16.085 1.03871 11.4768 1.03871C11.4493 1.03871 11.4318 1.02849 11.4233 1.02039C11.4229 1.02003 11.4226 1.01968 11.4222 1.01936ZM11.4233 5.9752C11.4229 5.97484 11.4226 5.97448 11.4222 5.97424C11.4226 5.97388 11.4229 5.97352 11.4233 5.97316C11.4318 5.96512 11.4493 5.9548 11.4768 5.9548C13.34 5.9548 14.7884 7.38184 14.7903 9.0676C14.7896 9.06868 14.7883 9.07012 14.7864 9.07204C14.7778 9.08008 14.7604 9.09028 14.7328 9.09028C14.7054 9.09028 14.6878 9.08008 14.6793 9.07204C14.6774 9.07012 14.6762 9.06868 14.6754 9.0676C14.6735 7.33588 13.2079 5.99356 11.4768 5.99356C11.4493 5.99356 11.4318 5.98336 11.4233 5.9752ZM11.4233 3.4978C11.4229 3.49745 11.4226 3.4971 11.4222 3.49678C11.4226 3.49644 11.4229 3.4961 11.4233 3.49575C11.4318 3.48765 11.4493 3.47742 11.4768 3.47742C14.7787 3.47742 17.3932 6.0136 17.3952 9.0676C17.3944 9.06868 17.3932 9.07012 17.3913 9.07204C17.3827 9.08008 17.3652 9.09028 17.3377 9.09028C17.3102 9.09028 17.2926 9.08008 17.2842 9.07204C17.2823 9.07012 17.281 9.06868 17.2803 9.0676C17.2784 5.96764 14.6464 3.51612 11.4768 3.51612C11.4493 3.51612 11.4318 3.5059 11.4233 3.4978Z" fill="white"/>
<path d="M11.9264 15.372C11.8828 15.3644 11.8552 15.3596 11.8323 15.3563C11.8229 15.3549 11.8171 15.3543 11.8144 15.354H11.7591L11.6984 15.3411C10.7333 15.1354 9.26405 14.5072 7.88809 13.3391C6.48114 12.1449 5.68041 10.5598 5.32107 9.78364C4.88977 8.85208 5.38211 8.09848 5.71057 7.82392L5.75308 7.7884L5.8013 7.7614C5.98631 7.65784 6.45799 7.35976 6.80592 7.0378C6.9084 6.94288 6.9654 6.80212 6.97954 6.62692C6.9863 6.54124 6.98155 6.45928 6.97146 6.39268C6.96338 6.33976 6.95424 6.31072 6.95222 6.30388C6.94854 6.29716 6.93975 6.28144 6.92337 6.25456C6.89938 6.21544 6.86684 6.16468 6.82611 6.10324C6.74477 5.98072 6.63801 5.82664 6.51688 5.65672C6.27463 5.317 5.98405 4.92597 5.74347 4.61816C5.27797 4.02228 4.58696 3.32501 4.14117 2.93002C4.10555 2.8984 4.01625 2.8554 3.84495 2.85819C3.67786 2.86091 3.50785 2.90769 3.39933 2.96074C2.23426 3.53031 1.70617 4.12386 1.20739 4.72788C1.05611 4.91108 0.99875 5.132 1.00002 5.3632C1.00133 5.6026 1.06653 5.81368 1.11281 5.91244L1.13238 5.9542L1.14539 5.9986C1.33126 6.63184 2.01421 8.00296 3.03514 9.55012C4.0476 11.0843 5.34779 12.7233 6.72589 13.9086C8.91682 15.7932 11.257 17.0729 13.1159 17.881C14.0447 18.2848 14.8489 18.5688 15.4482 18.7511C15.7482 18.8423 15.9936 18.907 16.1753 18.9482C16.3369 18.9849 16.4185 18.996 16.4405 18.999C16.4461 18.9998 16.4478 19 16.446 19C16.9389 19 17.5539 18.6753 18.1449 18.1574C18.7253 17.6488 19.1539 17.0674 19.2947 16.7628C19.3706 16.5986 19.3536 16.485 19.3221 16.4025C19.2826 16.2992 19.2092 16.2245 19.1781 16.2018C18.8035 15.9285 17.9723 15.3268 17.6052 15.077C17.1309 14.7545 16.1496 14.1185 15.3243 13.8366C14.8885 13.6877 14.544 13.8896 14.4383 13.987C14.2879 14.1678 13.9383 14.57 13.5553 14.9556C12.9586 15.5565 12.2467 15.4293 11.9497 15.3762C11.9416 15.3748 11.9339 15.3734 11.9264 15.372ZM11.9264 15.372L12.0288 14.781M11.4222 1.01936C11.4226 1.01902 11.4229 1.01868 11.4233 1.01832C11.4318 1.01022 11.4493 1 11.4768 1C16.2172 1 19.9981 4.64542 20 9.0676C19.9993 9.06868 19.998 9.07012 19.9961 9.07204C19.9875 9.08008 19.97 9.09028 19.9425 9.09028C19.9151 9.09028 19.8975 9.08008 19.889 9.07204C19.8871 9.07012 19.8859 9.06868 19.8851 9.0676C19.8832 4.59935 16.085 1.03871 11.4768 1.03871C11.4493 1.03871 11.4318 1.02849 11.4233 1.02039C11.4229 1.02003 11.4226 1.01968 11.4222 1.01936ZM11.4233 5.9752C11.4229 5.97484 11.4226 5.97448 11.4222 5.97424C11.4226 5.97388 11.4229 5.97352 11.4233 5.97316C11.4318 5.96512 11.4493 5.9548 11.4768 5.9548C13.34 5.9548 14.7884 7.38184 14.7903 9.0676C14.7896 9.06868 14.7883 9.07012 14.7864 9.07204C14.7778 9.08008 14.7604 9.09028 14.7328 9.09028C14.7054 9.09028 14.6878 9.08008 14.6793 9.07204C14.6774 9.07012 14.6762 9.06868 14.6754 9.0676C14.6735 7.33588 13.2079 5.99356 11.4768 5.99356C11.4493 5.99356 11.4318 5.98336 11.4233 5.9752ZM11.4233 3.4978C11.4229 3.49745 11.4226 3.4971 11.4222 3.49678C11.4226 3.49644 11.4229 3.4961 11.4233 3.49575C11.4318 3.48765 11.4493 3.47742 11.4768 3.47742C14.7787 3.47742 17.3932 6.0136 17.3952 9.0676C17.3944 9.06868 17.3932 9.07012 17.3913 9.07204C17.3827 9.08008 17.3652 9.09028 17.3377 9.09028C17.3102 9.09028 17.2926 9.08008 17.2842 9.07204C17.2823 9.07012 17.281 9.06868 17.2803 9.0676C17.2784 5.96764 14.6464 3.51612 11.4768 3.51612C11.4493 3.51612 11.4318 3.5059 11.4233 3.4978Z" stroke="white" stroke-linecap="round"/>
</svg>
