<svg width="10" height="20" viewBox="0 0 10 20" fill="none" xmlns="http://www.w3.org/2000/svg">
<path d="M9.17749 9.59201L2.00952 19.5334C1.84025 19.7808 1.60262 19.9306 1.29663 19.9826C0.990642 20.0347 0.713948 19.9696 0.466553 19.7873C0.219157 19.6181 0.0694171 19.3804 0.0173341 19.0744C-0.0347489 18.7684 0.0303547 18.4918 0.212647 18.2444L6.38452 9.65061L0.23218 1.79904C0.0498882 1.55165 -0.0217261 1.27821 0.0173365 0.978732C0.056399 0.679251 0.193118 0.431857 0.427493 0.236544C0.674888 0.0542515 0.948326 -0.0206176 1.24781 0.0119351C1.54728 0.044486 1.79468 0.184461 1.98999 0.431857L9.17749 9.59201Z" fill="#363636"/>
</svg>
