<svg width="10" height="20" viewBox="0 0 10 20" fill="none" xmlns="http://www.w3.org/2000/svg">
<path d="M10 9.58713L2.83203 19.5285C2.66276 19.7759 2.42513 19.9257 2.11914 19.9778C1.81315 20.0298 1.53646 19.9647 1.28906 19.7824C1.04167 19.6132 0.891927 19.3755 0.839844 19.0696C0.78776 18.7636 0.852865 18.4869 1.03516 18.2395L7.20703 9.64572L1.05469 1.79416C0.872396 1.54677 0.800781 1.27333 0.839844 0.973849C0.878906 0.67437 1.01563 0.426974 1.25 0.231662C1.4974 0.04937 1.77083 -0.0254998 2.07031 0.00705233C2.36979 0.0396044 2.61719 0.179578 2.8125 0.426974L10 9.58713Z" fill="#363636"/>
</svg>
