<svg width="26" height="26" viewBox="0 0 26 26" fill="none" xmlns="http://www.w3.org/2000/svg">
<mask id="path-1-inside-1_295_230" fill="white">
<path d="M21.1822 3.24682C20.9092 3.25952 20.6522 3.33886 20.4236 3.42773H20.4205C20.1888 3.51977 19.0875 3.98315 17.4149 4.68457C15.7422 5.38916 13.5713 6.30322 11.4163 7.21093C7.11261 9.02319 2.88189 10.8069 2.88189 10.8069L2.93268 10.7878C2.93268 10.7878 2.64068 10.8831 2.336 11.0925C2.18048 11.1941 2.00909 11.3337 1.85992 11.5527C1.71075 11.7717 1.59015 12.1082 1.63458 12.4541C1.70758 13.0413 2.08844 13.3936 2.36139 13.5872C2.63751 13.7839 2.90094 13.876 2.90094 13.876H2.90729L6.87457 15.2122C7.05231 15.7834 8.0838 19.1731 8.33136 19.9539C8.47735 20.4204 8.62018 20.7124 8.79791 20.9346C8.8836 21.0488 8.98517 21.144 9.10577 21.2202C9.15338 21.2488 9.20416 21.271 9.25494 21.29C9.27081 21.2996 9.28668 21.3027 9.30572 21.3059L9.26446 21.2964C9.27716 21.2996 9.28668 21.3091 9.2962 21.3123C9.32794 21.3218 9.35016 21.3249 9.39142 21.3313C10.0198 21.5217 10.5245 21.1313 10.5245 21.1313L10.553 21.1091L12.8953 18.9763L16.8213 21.9883L16.9102 22.0264C17.7291 22.385 18.5574 22.1851 18.9954 21.8328C19.4366 21.4773 19.608 21.0234 19.608 21.0234L19.6365 20.9504L22.6707 5.4082C22.7564 5.02417 22.7786 4.66552 22.6834 4.3164C22.5882 3.96728 22.3438 3.64038 22.0486 3.46582C21.7503 3.28808 21.4551 3.23413 21.1822 3.24682ZM21.0997 4.91308C21.0965 4.96386 21.106 4.95752 21.0838 5.0559V5.06543L18.0782 20.4458C18.0655 20.468 18.0433 20.5156 17.983 20.5632C17.9195 20.614 17.8687 20.6457 17.6053 20.541L12.8033 16.8594L9.9024 19.5032L10.5118 15.6121C10.5118 15.6121 18.0338 8.60107 18.3575 8.29956C18.6812 7.99804 18.5733 7.93457 18.5733 7.93457C18.5955 7.5664 18.0845 7.82666 18.0845 7.82666L8.19171 13.9553L8.18854 13.9394L3.44684 12.343V12.3398C3.44366 12.3398 3.43731 12.3367 3.43414 12.3367C3.43731 12.3367 3.45953 12.3271 3.45953 12.3271L3.48492 12.3144L3.51031 12.3049C3.51031 12.3049 7.7442 10.5212 12.0479 8.70898C14.2029 7.80127 16.3738 6.8872 18.0433 6.18261C19.7127 5.4812 20.9473 4.96704 21.0171 4.93847C21.0838 4.91308 21.0521 4.91308 21.0997 4.91308Z"/>
</mask>
<path d="M21.1822 3.24682C20.9092 3.25952 20.6522 3.33886 20.4236 3.42773H20.4205C20.1888 3.51977 19.0875 3.98315 17.4149 4.68457C15.7422 5.38916 13.5713 6.30322 11.4163 7.21093C7.11261 9.02319 2.88189 10.8069 2.88189 10.8069L2.93268 10.7878C2.93268 10.7878 2.64068 10.8831 2.336 11.0925C2.18048 11.1941 2.00909 11.3337 1.85992 11.5527C1.71075 11.7717 1.59015 12.1082 1.63458 12.4541C1.70758 13.0413 2.08844 13.3936 2.36139 13.5872C2.63751 13.7839 2.90094 13.876 2.90094 13.876H2.90729L6.87457 15.2122C7.05231 15.7834 8.0838 19.1731 8.33136 19.9539C8.47735 20.4204 8.62018 20.7124 8.79791 20.9346C8.8836 21.0488 8.98517 21.144 9.10577 21.2202C9.15338 21.2488 9.20416 21.271 9.25494 21.29C9.27081 21.2996 9.28668 21.3027 9.30572 21.3059L9.26446 21.2964C9.27716 21.2996 9.28668 21.3091 9.2962 21.3123C9.32794 21.3218 9.35016 21.3249 9.39142 21.3313C10.0198 21.5217 10.5245 21.1313 10.5245 21.1313L10.553 21.1091L12.8953 18.9763L16.8213 21.9883L16.9102 22.0264C17.7291 22.385 18.5574 22.1851 18.9954 21.8328C19.4366 21.4773 19.608 21.0234 19.608 21.0234L19.6365 20.9504L22.6707 5.4082C22.7564 5.02417 22.7786 4.66552 22.6834 4.3164C22.5882 3.96728 22.3438 3.64038 22.0486 3.46582C21.7503 3.28808 21.4551 3.23413 21.1822 3.24682ZM21.0997 4.91308C21.0965 4.96386 21.106 4.95752 21.0838 5.0559V5.06543L18.0782 20.4458C18.0655 20.468 18.0433 20.5156 17.983 20.5632C17.9195 20.614 17.8687 20.6457 17.6053 20.541L12.8033 16.8594L9.9024 19.5032L10.5118 15.6121C10.5118 15.6121 18.0338 8.60107 18.3575 8.29956C18.6812 7.99804 18.5733 7.93457 18.5733 7.93457C18.5955 7.5664 18.0845 7.82666 18.0845 7.82666L8.19171 13.9553L8.18854 13.9394L3.44684 12.343V12.3398C3.44366 12.3398 3.43731 12.3367 3.43414 12.3367C3.43731 12.3367 3.45953 12.3271 3.45953 12.3271L3.48492 12.3144L3.51031 12.3049C3.51031 12.3049 7.7442 10.5212 12.0479 8.70898C14.2029 7.80127 16.3738 6.8872 18.0433 6.18261C19.7127 5.4812 20.9473 4.96704 21.0171 4.93847C21.0838 4.91308 21.0521 4.91308 21.0997 4.91308Z" fill="white"/>
<path d="M21.1822 3.24682L22.3437 28.2198H22.3437L21.1822 3.24682ZM20.4236 3.42773V28.4277H25.1137L29.4848 26.7278L20.4236 3.42773ZM20.4205 3.42773V-21.5723H15.6366L11.1906 -19.8061L20.4205 3.42773ZM17.4149 4.68457L7.74669 -18.3703L7.7281 -18.3625L7.70952 -18.3547L17.4149 4.68457ZM11.4163 7.21093L21.1185 30.2515L21.1208 30.2505L11.4163 7.21093ZM2.88189 10.8069L-6.83035 -12.2294L11.66 34.2151L2.88189 10.8069ZM2.93268 10.7878L11.7108 34.1961L-4.81781 -12.9804L2.93268 10.7878ZM2.336 11.0925L16.0057 32.0243L16.2544 31.8619L16.4992 31.6936L2.336 11.0925ZM1.85992 11.5527L22.5219 25.6269L22.522 25.6268L1.85992 11.5527ZM1.63458 12.4541L26.4436 9.36973L26.4373 9.31946L26.4309 9.26922L1.63458 12.4541ZM2.36139 13.5872L16.8702 -6.77197L16.8476 -6.78808L16.825 -6.80413L2.36139 13.5872ZM2.90094 13.876L-5.34512 37.4769L-1.34078 38.876H2.90094V13.876ZM2.90729 13.876L10.8869 -9.81635L7.00422 -11.124H2.90729V13.876ZM6.87457 15.2122L30.746 7.78549L26.9533 -4.40516L14.8541 -8.48017L6.87457 15.2122ZM8.33136 19.9539L32.1905 12.4877L32.1764 12.4427L32.1621 12.3978L8.33136 19.9539ZM8.79791 20.9346L28.7979 5.93454L28.5636 5.62212L28.3196 5.31717L8.79791 20.9346ZM9.10577 21.2202L-4.24409 42.3574L-4.00202 42.5103L-3.75652 42.6576L9.10577 21.2202ZM9.25494 21.29L22.1177 -0.147094L20.165 -1.31871L18.0329 -2.11826L9.25494 21.29ZM9.30572 21.3059L5.19592 45.9658L14.9272 -3.05387L9.30572 21.3059ZM9.26446 21.2964L14.886 -3.0634L3.20144 45.55L9.26446 21.2964ZM9.2962 21.3123L1.39051 45.0293L1.74975 45.1491L2.11245 45.2579L9.2962 21.3123ZM9.39142 21.3313L16.6416 -2.59431L14.9449 -3.10847L13.1926 -3.37803L9.39142 21.3313ZM10.5245 21.1313L25.8213 40.9053L25.8472 40.8852L25.873 40.8652L10.5245 21.1313ZM10.553 21.1091L25.9016 40.8429L26.6674 40.2473L27.3848 39.594L10.553 21.1091ZM12.8953 18.9763L28.1125 -0.85894L11.5233 -13.5858L-3.93645 0.49142L12.8953 18.9763ZM16.8213 21.9883L1.60417 41.8235L4.09166 43.7319L6.97336 44.9669L16.8213 21.9883ZM16.9102 22.0264L26.94 -0.873497L26.8492 -0.913239L26.7582 -0.952261L16.9102 22.0264ZM18.9954 21.8328L34.6644 41.3131L34.6727 41.3064L34.681 41.2997L18.9954 21.8328ZM19.608 21.0234L-3.6731 11.9135L-3.7274 12.0522L-3.78004 12.1916L19.608 21.0234ZM19.6365 20.9504L42.9176 30.0604L43.7406 27.9572L44.1733 25.7405L19.6365 20.9504ZM22.6707 5.4082L-1.72921 -0.0364256L-1.80203 0.289915L-1.86609 0.618087L22.6707 5.4082ZM22.6834 4.3164L46.8025 -2.2615L46.8025 -2.26156L22.6834 4.3164ZM22.0486 3.46582L9.25353 24.9434L9.28803 24.9639L9.3226 24.9844L22.0486 3.46582ZM21.0997 4.91308L46.051 6.47244L47.7108 -20.0869H21.0997V4.91308ZM21.0838 5.0559L-3.30221 -0.450697L-3.9162 2.26837V5.0559H21.0838ZM21.0838 5.06543L45.6197 9.8602L46.0838 7.48528V5.06543H21.0838ZM18.0782 20.4458L39.7841 32.8495L41.8251 29.2779L42.6141 25.2406L18.0782 20.4458ZM17.983 20.5632L2.49172 0.941269L2.4285 0.991186L2.36559 1.04151L17.983 20.5632ZM17.6053 20.541L2.39422 40.381L5.14631 42.491L8.36881 43.7722L17.6053 20.541ZM12.8033 16.8594L28.0143 -2.98058L11.419 -15.704L-4.03667 -1.61808L12.8033 16.8594ZM9.9024 19.5032L-14.7966 15.6351L-25.7945 85.8616L26.7423 37.9806L9.9024 19.5032ZM10.5118 15.6121L-6.5338 -2.67587L-12.851 3.21222L-14.1872 11.744L10.5118 15.6121ZM18.3575 8.29956L1.31871 -9.99471L1.31869 -9.99469L18.3575 8.29956ZM18.5733 7.93457L-6.3813 6.42867L-7.3039 21.7173L5.89786 29.483L18.5733 7.93457ZM18.0845 7.82666L6.73844 -14.4504L5.80711 -13.976L4.91863 -13.4256L18.0845 7.82666ZM8.19171 13.9553L-16.3228 18.8582L-9.25945 54.175L21.3576 35.2076L8.19171 13.9553ZM8.18854 13.9394L32.7031 9.03655L29.8676 -5.14052L16.1656 -9.75374L8.18854 13.9394ZM3.44684 12.343H-21.5532V30.3049L-4.53019 36.0362L3.44684 12.343ZM3.44684 12.3398H28.4468V-12.6602H3.44684V12.3398ZM3.45953 12.3271L13.3074 35.3058L13.9827 35.0164L14.6399 34.6878L3.45953 12.3271ZM3.48492 12.3144L-5.29316 -11.0938L-6.52178 -10.633L-7.69542 -10.0462L3.48492 12.3144ZM3.51031 12.3049L12.2884 35.7132L12.7561 35.5378L13.2164 35.3439L3.51031 12.3049ZM12.0479 8.70898L21.7501 31.7495L21.7524 31.7486L12.0479 8.70898ZM18.0433 6.18261L8.35948 -16.8657L8.34087 -16.8579L8.32227 -16.85L18.0433 6.18261ZM21.0171 4.93847L12.1172 -18.4237L11.833 -18.3154L11.5514 -18.2002L21.0171 4.93847ZM20.0207 -21.7262C15.8022 -21.53 12.6181 -20.3607 11.3625 -19.8724L29.4848 26.7278C28.6862 27.0384 26.0163 28.049 22.3437 28.2198L20.0207 -21.7262ZM20.4236 -21.5723H20.4205V28.4277H20.4236V-21.5723ZM11.1906 -19.8061C10.9151 -19.6966 10.6154 -19.5719 10.49 -19.5197C10.2969 -19.4394 10.0608 -19.3407 9.79961 -19.2313C9.28157 -19.0143 8.56485 -18.7134 7.74669 -18.3703L27.083 27.7394C27.9375 27.3811 28.6077 27.0997 29.1164 26.8866C29.3686 26.781 29.5558 26.7027 29.6866 26.6483C29.8852 26.5658 29.81 26.5981 29.6503 26.6615L11.1906 -19.8061ZM7.70952 -18.3547C6.0344 -17.649 3.87439 -16.7395 1.71186 -15.8287L21.1208 30.2505C23.2683 29.346 25.4501 28.4273 27.1202 27.7238L7.70952 -18.3547ZM1.71413 -15.8296C-0.440726 -14.9222 -2.57672 -14.0222 -4.17364 -13.3493C-4.97219 -13.0127 -5.63618 -12.7328 -6.10059 -12.5371C-6.33281 -12.4392 -6.51514 -12.3623 -6.63947 -12.3099C-6.70164 -12.2837 -6.7493 -12.2636 -6.78145 -12.2501C-6.79753 -12.2433 -6.80972 -12.2381 -6.81791 -12.2347C-6.82201 -12.233 -6.8251 -12.2317 -6.82718 -12.2308C-6.82822 -12.2303 -6.829 -12.23 -6.82953 -12.2298C-6.8298 -12.2297 -6.83 -12.2296 -6.83013 -12.2295C-6.8302 -12.2295 -6.83025 -12.2295 -6.83029 -12.2295C-6.83032 -12.2295 -6.83035 -12.2294 2.88189 10.8069C12.5941 33.8432 12.5941 33.8432 12.5942 33.8432C12.5942 33.8432 12.5942 33.8432 12.5943 33.8431C12.5944 33.8431 12.5946 33.843 12.5949 33.8429C12.5954 33.8427 12.5961 33.8424 12.5971 33.8419C12.5992 33.8411 12.6022 33.8398 12.6062 33.8381C12.6143 33.8347 12.6264 33.8296 12.6424 33.8229C12.6743 33.8094 12.7217 33.7894 12.7836 33.7633C12.9075 33.7111 13.0893 33.6345 13.321 33.5368C13.7843 33.3415 14.447 33.0622 15.2441 32.7263C16.8384 32.0543 18.9697 31.1564 21.1185 30.2515L1.71413 -15.8296ZM11.66 34.2151L11.7108 34.1961L-5.84541 -12.6204L-5.89619 -12.6013L11.66 34.2151ZM2.93268 10.7878C-4.81781 -12.9804 -4.82177 -12.9791 -4.82573 -12.9778C-4.82705 -12.9774 -4.83102 -12.9761 -4.83367 -12.9752C-4.83897 -12.9735 -4.84428 -12.9718 -4.84961 -12.97C-4.86026 -12.9665 -4.87096 -12.963 -4.88171 -12.9595C-4.90322 -12.9524 -4.92492 -12.9452 -4.94683 -12.938C-4.99065 -12.9234 -5.03529 -12.9085 -5.08075 -12.8931C-5.17162 -12.8623 -5.26593 -12.8299 -5.36349 -12.7956C-5.55826 -12.7272 -5.7679 -12.651 -5.99057 -12.5665C-6.43212 -12.3989 -6.9452 -12.1908 -7.51051 -11.9364C-8.58388 -11.4534 -10.1251 -10.6788 -11.8272 -9.50851L16.4992 31.6936C15.1017 32.6543 13.8589 33.2766 13.0077 33.6597C12.5535 33.8641 12.1324 34.0352 11.7552 34.1785C11.5646 34.2508 11.3802 34.3179 11.2026 34.3803C11.1136 34.4115 11.0258 34.4418 10.9394 34.471C10.8962 34.4856 10.8532 34.5 10.8105 34.5142C10.7891 34.5213 10.7679 34.5283 10.7466 34.5353C10.736 34.5388 10.7254 34.5423 10.7149 34.5457C10.7096 34.5475 10.7043 34.5492 10.699 34.5509C10.6964 34.5518 10.6924 34.5531 10.6911 34.5535C10.6871 34.5548 10.6832 34.5561 2.93268 10.7878ZM-11.3337 -9.83923C-13.3828 -8.50104 -16.2919 -6.20661 -18.8021 -2.52137L22.522 25.6268C20.3101 28.8741 17.7438 30.8892 16.0057 32.0243L-11.3337 -9.83923ZM-18.8021 -2.52142C-21.6058 1.59462 -24.1467 7.9702 -23.1617 15.639L26.4309 9.26922C26.9006 12.9265 26.4598 16.1525 25.752 18.6851C25.0537 21.1836 23.9566 23.5207 22.5219 25.6269L-18.8021 -2.52142ZM-23.1744 15.5385C-21.8309 26.3452 -14.725 32.1181 -12.1022 33.9784L16.825 -6.80413C18.9019 -5.33098 25.246 -0.262664 26.4436 9.36973L-23.1744 15.5385ZM-12.1474 33.9463C-10.5104 35.1129 -9.02424 35.8976 -7.97895 36.3934C-7.42958 36.6539 -6.92967 36.8687 -6.49757 37.043C-6.27972 37.1309 -6.07422 37.2105 -5.88281 37.2822C-5.78694 37.3181 -5.69414 37.3522 -5.6046 37.3846C-5.55981 37.4008 -5.51578 37.4166 -5.47254 37.432C-5.45092 37.4397 -5.42949 37.4472 -5.40826 37.4547C-5.39764 37.4585 -5.38707 37.4622 -5.37654 37.4659C-5.37128 37.4677 -5.36603 37.4696 -5.3608 37.4714C-5.35818 37.4723 -5.35426 37.4737 -5.35295 37.4741C-5.34903 37.4755 -5.34512 37.4769 2.90094 13.876C11.147 -9.72493 11.1509 -9.72356 11.1548 -9.72219C11.1561 -9.72174 11.16 -9.72037 11.1626 -9.71945C11.1679 -9.71763 11.1731 -9.71579 11.1783 -9.71396C11.1888 -9.71029 11.1993 -9.7066 11.2097 -9.70291C11.2307 -9.69551 11.2518 -9.68807 11.2729 -9.68056C11.3151 -9.66555 11.3576 -9.65031 11.4004 -9.63484C11.486 -9.6039 11.5728 -9.57194 11.661 -9.53892C11.8369 -9.473 12.0197 -9.40216 12.2085 -9.32598C12.5826 -9.17507 12.9994 -8.9956 13.4484 -8.78264C14.2929 -8.38207 15.5093 -7.74181 16.8702 -6.77197L-12.1474 33.9463ZM2.90094 38.876H2.90729V-11.124H2.90094V38.876ZM-5.07229 37.5683L-1.105 38.9045L14.8541 -8.48017L10.8869 -9.81635L-5.07229 37.5683ZM-16.9968 22.6388C-16.9969 22.6387 -16.9963 22.6404 -16.9952 22.6442C-16.994 22.6479 -16.9925 22.653 -16.9904 22.6596C-16.9863 22.673 -16.9808 22.6906 -16.974 22.7128C-16.9602 22.7575 -16.9428 22.8143 -16.9215 22.8835C-16.8789 23.0223 -16.8255 23.1966 -16.7633 23.3999C-16.5998 23.9343 -16.5258 24.1765 -16.329 24.8199C-16.0399 25.7644 -15.6717 26.9665 -15.4994 27.5099L32.1621 12.3978C32.1622 12.398 32.1617 12.3964 32.1606 12.3928C32.1594 12.3893 32.1579 12.3843 32.1558 12.3777C32.1516 12.3643 32.146 12.3465 32.1389 12.3237C32.1245 12.2777 32.1062 12.2189 32.0838 12.1466C32.0389 12.0016 31.9833 11.8215 31.919 11.6125C31.7905 11.1947 31.6373 10.6947 31.4825 10.189C31.1941 9.24637 30.8579 8.14525 30.746 7.78549L-16.9968 22.6388ZM-15.5277 27.42C-14.9332 29.3201 -13.6386 32.9084 -10.7238 36.552L28.3196 5.31717C30.879 8.51639 31.8879 11.5207 32.1905 12.4877L-15.5277 27.42ZM-11.2021 35.9346C-9.37292 38.3735 -7.04862 40.5861 -4.24409 42.3574L22.4556 0.08301C25.019 1.70196 27.1401 3.72419 28.7979 5.93454L-11.2021 35.9346ZM-3.75652 42.6576C-1.94016 43.7474 -0.365312 44.3825 0.477018 44.6983L18.0329 -2.11826C18.7736 -1.84047 20.2469 -1.24985 21.9681 -0.217176L-3.75652 42.6576ZM-3.60778 42.7272C0.838019 45.3947 5.06239 45.9435 5.19592 45.9658L13.4155 -3.35397C13.511 -3.33807 17.7036 -2.79562 22.1177 -0.147094L-3.60778 42.7272ZM14.9272 -3.05387L14.886 -3.0634L3.64297 45.6562L3.68423 45.6657L14.9272 -3.05387ZM3.20144 45.55C1.0702 45.0173 -0.61225 44.2971 -1.74905 43.7387C-2.32007 43.4582 -2.78859 43.2008 -3.12585 43.0081C-3.45701 42.8188 -3.71216 42.6627 -3.82093 42.5958C-3.85057 42.5775 -3.87475 42.5626 -3.89038 42.5529C-3.90519 42.5437 -3.91693 42.5364 -3.91749 42.536C-3.93034 42.528 -3.88724 42.5549 -3.84081 42.5835C-3.75133 42.6387 -3.47503 42.8089 -3.11462 43.0149C-2.74885 43.2239 -2.18037 43.5369 -1.46496 43.8779C-0.747353 44.22 0.218001 44.6385 1.39051 45.0293L17.2019 -2.40483C18.372 -2.01479 19.335 -1.59726 20.0502 -1.25632C20.7632 -0.916426 21.3293 -0.604733 21.6926 -0.39711C22.0506 -0.192547 22.3245 -0.0238514 22.4115 0.0298181C22.4566 0.0576937 22.4985 0.0837519 22.4844 0.0749755C22.4832 0.07423 22.4708 0.0665338 22.4554 0.0569594C22.4391 0.046869 22.4143 0.0315073 22.384 0.0128677C22.2008 -0.0998819 21.3886 -0.602404 20.2959 -1.13916C19.1535 -1.70035 17.4651 -2.42291 15.3275 -2.95727L3.20144 45.55ZM2.11245 45.2579C3.0364 45.5351 3.90194 45.7376 4.6929 45.8872C5.02578 45.9502 5.29116 45.9934 5.41961 46.0139C5.52167 46.0302 5.64317 46.0488 5.59021 46.0406L13.1926 -3.37803C13.119 -3.38935 13.2223 -3.37359 13.3076 -3.35996C13.4193 -3.34211 13.6694 -3.30148 13.9876 -3.24128C14.7492 -3.09719 15.5877 -2.90105 16.48 -2.63339L2.11245 45.2579ZM2.14123 45.2569C9.05427 47.3518 15.0431 46.1293 18.6713 44.8214C20.5078 44.1594 22.0005 43.3915 23.1162 42.7348C23.6868 42.399 24.195 42.0709 24.6388 41.7667C24.8617 41.6138 25.0715 41.4648 25.2678 41.3214C25.3661 41.2495 25.4613 41.1789 25.5535 41.1096C25.5996 41.0749 25.6449 41.0405 25.6896 41.0065C25.7119 40.9894 25.734 40.9725 25.756 40.9556C25.7669 40.9472 25.7779 40.9388 25.7887 40.9304C25.7942 40.9262 25.8023 40.9199 25.805 40.9178C25.8132 40.9115 25.8213 40.9053 10.5245 21.1313C-4.77232 1.35742 -4.76422 1.35115 -4.75611 1.34489C-4.7534 1.3428 -4.74527 1.33652 -4.73984 1.33234C-4.72899 1.32397 -4.7181 1.31559 -4.70719 1.30721C-4.68536 1.29044 -4.66342 1.27363 -4.64135 1.25679C-4.59722 1.22312 -4.5526 1.18931 -4.50748 1.15536C-4.41728 1.08749 -4.32496 1.019 -4.23053 0.950006C-4.04189 0.812172 -3.84359 0.671416 -3.63565 0.528841C-3.22193 0.24518 -2.75805 -0.0539179 -2.2446 -0.356107C-1.24313 -0.945515 0.0841595 -1.62777 1.71593 -2.21597C4.93472 -3.37623 10.357 -4.49875 16.6416 -2.59431L2.14123 45.2569ZM25.873 40.8652L25.9016 40.8429L-4.79548 1.37532L-4.82404 1.39754L25.873 40.8652ZM27.3848 39.594L29.7271 37.4612L-3.93645 0.49142L-6.27874 2.62423L27.3848 39.594ZM-2.32186 38.8116L1.60417 41.8235L32.0385 2.15302L28.1125 -0.85894L-2.32186 38.8116ZM6.97336 44.9669L7.06223 45.005L26.7582 -0.952261L26.6693 -0.990347L6.97336 44.9669ZM6.88044 44.9262C16.304 49.0536 27.0268 47.4564 34.6644 41.3131L3.32644 2.35244C10.0881 -3.0863 19.1541 -4.28359 26.94 -0.873497L6.88044 44.9262ZM34.681 41.2997C37.6581 38.9009 39.563 36.324 40.709 34.4775C41.3061 33.5153 41.7739 32.6275 42.1359 31.869C42.3188 31.4858 42.48 31.1246 42.6215 30.7903C42.6925 30.6228 42.7589 30.4609 42.8211 30.3052C42.8523 30.2273 42.8824 30.1508 42.9115 30.0759C42.926 30.0384 42.9404 30.0012 42.9544 29.9645C42.9615 29.9461 42.9685 29.9278 42.9754 29.9096C42.9788 29.9005 42.9823 29.8914 42.9857 29.8824C42.9874 29.8778 42.99 29.8711 42.9909 29.8688C42.9934 29.862 42.996 29.8553 19.608 21.0234C-3.78004 12.1916 -3.77748 12.1848 -3.77493 12.1781C-3.77407 12.1758 -3.77151 12.1691 -3.7698 12.1645C-3.76638 12.1555 -3.76295 12.1465 -3.75951 12.1374C-3.75263 12.1193 -3.74571 12.1012 -3.73875 12.083C-3.72484 12.0467 -3.71077 12.0102 -3.69655 11.9736C-3.66811 11.9004 -3.63902 11.8265 -3.60926 11.752C-3.54977 11.6032 -3.48742 11.4514 -3.42204 11.297C-3.29159 10.9888 -3.14726 10.6659 -2.98732 10.3308C-2.67121 9.66854 -2.27386 8.91637 -1.7747 8.11206C-0.824774 6.58141 0.77386 4.40918 3.30983 2.36581L34.681 41.2997ZM42.889 30.1334L42.9176 30.0604L-3.64454 11.8405L-3.6731 11.9135L42.889 30.1334ZM44.1733 25.7405L47.2075 10.1983L-1.86609 0.618087L-4.90027 16.1603L44.1733 25.7405ZM47.0706 10.8528C47.6539 8.23889 48.3555 3.43273 46.8025 -2.2615L-1.4357 10.8943C-2.79823 5.89832 -2.1411 1.80944 -1.72921 -0.0364256L47.0706 10.8528ZM46.8025 -2.26156C45.0939 -8.52624 40.976 -14.3853 34.7747 -18.0527L9.3226 24.9844C6.28087 23.1855 4.0224 20.9438 2.40865 18.7824C0.781812 16.6035 -0.599509 13.9603 -1.43568 10.8944L46.8025 -2.26156ZM34.8438 -18.0117C29.9098 -20.9511 24.6673 -21.9423 20.0207 -21.7262L22.3437 28.2198C18.243 28.4106 13.5908 27.5273 9.25353 24.9434L34.8438 -18.0117ZM-3.85165 3.35373C-3.90496 4.20663 -3.90361 4.88607 -3.89914 5.24979C-3.89385 5.68097 -3.91708 4.72864 -3.87413 3.8051C-3.77151 1.59876 -3.38553 -0.0817029 -3.30221 -0.450697L45.4698 10.5625C45.5753 10.0951 45.9677 8.36864 46.0719 6.12818C46.1156 5.18759 46.092 4.22117 46.0971 4.63618C46.1014 4.98373 46.1027 5.64492 46.051 6.47244L-3.85165 3.35373ZM-3.9162 5.0559V5.06543H46.0838V5.0559H-3.9162ZM-3.4521 0.270649L-6.45771 15.651L42.6141 25.2406L45.6197 9.8602L-3.4521 0.270649ZM-3.62775 8.04207C-4.31111 9.23792 -3.26276 7.32418 -2.32132 6.00109C-1.13141 4.32878 0.443632 2.55821 2.49172 0.941269L33.4742 40.1852C35.5826 38.5206 37.1989 36.7025 38.4182 34.9889C39.389 33.6245 40.4548 31.6759 39.7841 32.8495L-3.62775 8.04207ZM2.36559 1.04151C2.40809 1.00751 4.35309 -0.626279 7.18345 -1.97445C10.4804 -3.54485 13.9508 -4.30866 17.3137 -4.38339C22.6345 -4.50163 26.5629 -2.80103 26.8418 -2.69017L8.36881 43.7722C8.91108 43.9878 12.9966 45.7249 18.4245 45.6043C26.8578 45.4169 32.2939 41.1301 33.6003 40.0849L2.36559 1.04151ZM32.8163 0.701065L28.0143 -2.98058L-2.40778 36.6993L2.39422 40.381L32.8163 0.701065ZM-4.03667 -1.61808L-6.93755 1.02572L26.7423 37.9806L29.6432 35.3368L-4.03667 -1.61808ZM34.6014 23.3712L35.2107 19.4801L-14.1872 11.744L-14.7966 15.6351L34.6014 23.3712ZM10.5118 15.6121C27.5574 33.9 27.5574 33.9 27.5574 33.8999C27.5575 33.8998 27.5576 33.8998 27.5577 33.8997C27.5579 33.8995 27.5583 33.8991 27.5587 33.8987C27.5596 33.8979 27.561 33.8966 27.5628 33.8949C27.5664 33.8915 27.5718 33.8865 27.5789 33.8799C27.5932 33.8666 27.6143 33.8469 27.6419 33.8212C27.6971 33.7698 27.778 33.6943 27.8812 33.5982C28.0875 33.4059 28.3826 33.1308 28.7377 32.7999C29.4479 32.1379 30.3982 31.2521 31.3587 30.3569C33.2834 28.563 35.2388 26.7404 35.3963 26.5938L1.31869 -9.99469C1.15241 -9.83982 -0.814973 -8.00615 -2.73221 -6.21918C-3.69273 -5.32393 -4.64313 -4.4381 -5.35339 -3.77609C-5.70852 -3.44509 -6.00362 -3.17003 -6.20994 -2.97773C-6.3131 -2.88158 -6.39406 -2.80611 -6.44924 -2.75469C-6.47683 -2.72897 -6.49797 -2.70927 -6.51221 -2.69599C-6.51933 -2.68936 -6.52473 -2.68433 -6.52835 -2.68095C-6.53016 -2.67927 -6.53152 -2.678 -6.53243 -2.67715C-6.53289 -2.67672 -6.53323 -2.6764 -6.53346 -2.67619C-6.53357 -2.67608 -6.53366 -2.676 -6.53372 -2.67595C-6.53377 -2.6759 -6.5338 -2.67587 10.5118 15.6121ZM35.3963 26.5938C36.1732 25.8702 40.9455 21.5912 42.8298 14.1096C44.0014 9.45765 44.0758 3.35392 41.1721 -2.76658C39.8185 -5.61968 38.0674 -7.92252 36.2785 -9.71623C35.3938 -10.6033 34.5085 -11.3578 33.6645 -11.9967C33.2419 -12.3167 32.8271 -12.6096 32.4243 -12.8777C32.2227 -13.0118 32.0238 -13.14 31.8278 -13.2625C31.7299 -13.3238 31.6326 -13.3837 31.5361 -13.4422C31.4878 -13.4715 31.4397 -13.5004 31.3918 -13.529C31.3679 -13.5433 31.3321 -13.5646 31.3202 -13.5717C31.2845 -13.5928 31.2487 -13.6138 18.5733 7.93457C5.89786 29.483 5.86214 29.4619 5.82645 29.4408C5.81452 29.4337 5.77867 29.4124 5.75477 29.3981C5.70688 29.3695 5.65881 29.3406 5.61057 29.3114C5.51408 29.2529 5.41684 29.193 5.31891 29.1318C5.12309 29.0093 4.92427 28.8812 4.72292 28.7472C4.3205 28.4794 3.90622 28.1869 3.48433 27.8675C2.6418 27.2296 1.75849 26.4767 0.876108 25.592C-0.908191 23.8029 -2.65337 21.5074 -4.00189 18.665C-6.89547 12.5658 -6.81429 6.49678 -5.65618 1.89838C-4.60785 -2.2641 -2.73046 -5.16925 -1.64221 -6.65531C-0.469715 -8.2564 0.651135 -9.37295 1.31871 -9.99471L35.3963 26.5938ZM43.5279 9.44046C43.885 3.52368 42.0174 -7.16643 31.5454 -13.5679C23.7675 -18.3225 16.2761 -17.232 14.5712 -16.9722C11.9049 -16.5659 9.89553 -15.8193 9.03846 -15.4832C8.49657 -15.2708 8.03502 -15.0689 7.6723 -14.9023C7.48678 -14.8171 7.31631 -14.7361 7.16236 -14.6613C7.08508 -14.6237 7.01112 -14.5873 6.94064 -14.5522C6.90537 -14.5347 6.87089 -14.5174 6.83721 -14.5004C6.82036 -14.4919 6.80371 -14.4835 6.78725 -14.4752C6.77902 -14.471 6.77084 -14.4668 6.7627 -14.4627C6.75864 -14.4607 6.75256 -14.4576 6.75053 -14.4565C6.74448 -14.4535 6.73844 -14.4504 18.0845 7.82666C29.4306 30.1037 29.4246 30.1068 29.4185 30.1098C29.4165 30.1109 29.4105 30.114 29.4064 30.116C29.3983 30.1201 29.3902 30.1243 29.382 30.1284C29.3657 30.1367 29.3492 30.145 29.3326 30.1533C29.2994 30.1701 29.2657 30.187 29.2313 30.2041C29.1628 30.2382 29.0917 30.2732 29.0182 30.309C28.8717 30.3801 28.7122 30.4559 28.5406 30.5347C28.2057 30.6885 27.7839 30.8729 27.2896 31.0667C26.5276 31.3655 24.6446 32.07 22.1033 32.4573C20.7871 32.6578 18.6708 32.873 16.0759 32.6277C13.4967 32.3839 9.56782 31.5994 5.46721 29.0927C1.03752 26.3849 -2.45117 22.3466 -4.4802 17.5304C-6.36061 13.067 -6.53852 9.03397 -6.3813 6.42867L43.5279 9.44046ZM4.91863 -13.4256L-4.9742 -7.29695L21.3576 35.2076L31.2504 29.0789L4.91863 -13.4256ZM32.7062 9.05242L32.7031 9.03655L-16.326 18.8424L-16.3228 18.8582L32.7062 9.05242ZM16.1656 -9.75374L11.4239 -11.3502L-4.53019 36.0362L0.211511 37.6326L16.1656 -9.75374ZM28.4468 12.343V12.3398H-21.5532V12.343H28.4468ZM3.44684 -12.6602C3.70682 -12.6602 3.95561 -12.6561 4.19231 -12.649C4.42905 -12.642 4.65561 -12.6318 4.87123 -12.6195C5.08689 -12.6072 5.29331 -12.5926 5.48985 -12.5765C5.68642 -12.5604 5.87463 -12.5426 6.05392 -12.5238C6.23323 -12.505 6.40498 -12.485 6.56867 -12.4644C6.73238 -12.4438 6.88923 -12.4224 7.03881 -12.4007C7.1884 -12.379 7.33177 -12.3568 7.46856 -12.3345C7.60536 -12.3122 7.73652 -12.2896 7.8617 -12.2672C7.98689 -12.2447 8.10695 -12.2221 8.22157 -12.1998C8.33621 -12.1775 8.44616 -12.1553 8.55116 -12.1334C8.65617 -12.1115 8.7569 -12.0898 8.8531 -12.0684C8.94932 -12.0471 9.04161 -12.0261 9.12975 -12.0055C9.30557 -11.9644 9.46794 -11.9245 9.61526 -11.887C9.76267 -11.8494 9.89861 -11.8134 10.0216 -11.7798C10.1448 -11.7462 10.2579 -11.7144 10.3599 -11.685C10.4619 -11.6556 10.5553 -11.6281 10.6387 -11.603C10.7221 -11.5779 10.7979 -11.5547 10.8647 -11.5339C10.9316 -11.5131 10.9915 -11.4942 11.0432 -11.4777C11.095 -11.4611 11.1405 -11.4464 11.1782 -11.4342C11.2159 -11.4219 11.248 -11.4113 11.2725 -11.4033C11.2969 -11.3952 11.3165 -11.3887 11.3282 -11.3848C11.3342 -11.3828 11.339 -11.3812 11.3419 -11.3803C11.3445 -11.3794 11.3468 -11.3786 11.3463 -11.3788C11.3463 -11.3788 11.3463 -11.3788 11.3462 -11.3788C11.3462 -11.3788 11.3461 -11.3789 11.346 -11.3789C11.3458 -11.379 11.3455 -11.3791 11.3451 -11.3792C11.3443 -11.3795 11.343 -11.3799 11.3415 -11.3804C11.3385 -11.3814 11.3335 -11.3831 11.3274 -11.3851C11.3154 -11.3891 11.2955 -11.3957 11.2709 -11.4038C11.2461 -11.412 11.2137 -11.4226 11.1758 -11.435C11.1378 -11.4473 11.092 -11.4621 11.04 -11.4787C10.988 -11.4953 10.9278 -11.5144 10.8607 -11.5352C10.7936 -11.5561 10.7176 -11.5794 10.6339 -11.6046C10.5502 -11.6297 10.4566 -11.6574 10.3543 -11.6868C10.2521 -11.7162 10.1386 -11.7482 10.0153 -11.7818C9.89198 -11.8155 9.75579 -11.8516 9.60813 -11.8892C9.46056 -11.9268 9.29794 -11.9668 9.12188 -12.0079C9.03361 -12.0285 8.94119 -12.0496 8.84485 -12.071C8.74852 -12.0923 8.64767 -12.1141 8.54254 -12.136C8.43741 -12.1579 8.32734 -12.1802 8.21258 -12.2025C8.09783 -12.2249 7.97765 -12.2474 7.85233 -12.2699C7.72703 -12.2924 7.59574 -12.315 7.45882 -12.3373C7.3219 -12.3597 7.1784 -12.3819 7.02868 -12.4036C6.87898 -12.4254 6.72199 -12.4468 6.55815 -12.4674C6.39433 -12.488 6.22245 -12.508 6.043 -12.5269C5.86358 -12.5457 5.67523 -12.5635 5.47852 -12.5796C5.28184 -12.5958 5.07528 -12.6104 4.85947 -12.6227C4.6437 -12.635 4.41699 -12.6451 4.1801 -12.6522C3.94324 -12.6593 3.69429 -12.6633 3.43414 -12.6633V37.3367C3.17409 37.3367 2.92525 37.3326 2.68848 37.3255C2.45169 37.3185 2.22509 37.3083 2.00942 37.296C1.79373 37.2837 1.58727 37.2691 1.39069 37.253C1.19409 37.2369 1.00586 37.2191 0.82654 37.2003C0.647202 37.1815 0.475439 37.1615 0.31173 37.1409C0.148001 37.1203 -0.00886703 37.0989 -0.158455 37.0771C-0.30806 37.0554 -0.451445 37.0332 -0.588239 37.0109C-0.725049 36.9886 -0.85621 36.966 -0.981394 36.9435C-1.10659 36.9211 -1.22665 36.8985 -1.34127 36.8762C-1.45591 36.8539 -1.56586 36.8317 -1.67086 36.8097C-1.77587 36.7878 -1.8766 36.7661 -1.9728 36.7448C-2.06901 36.7235 -2.1613 36.7024 -2.24944 36.6818C-2.42524 36.6408 -2.5876 36.6009 -2.7349 36.5633C-2.8823 36.5258 -3.01822 36.4897 -3.14124 36.4562C-3.26433 36.4226 -3.3775 36.3907 -3.47944 36.3614C-3.58144 36.332 -3.67476 36.3044 -3.75815 36.2794C-3.84158 36.2543 -3.91732 36.231 -3.98412 36.2103C-4.05093 36.1895 -4.11086 36.1706 -4.16256 36.1541C-4.21425 36.1376 -4.25974 36.1229 -4.29745 36.1106C-4.33511 36.0983 -4.3672 36.0878 -4.3917 36.0797C-4.41602 36.0717 -4.43561 36.0652 -4.44728 36.0613C-4.45327 36.0593 -4.45809 36.0577 -4.46097 36.0567C-4.46359 36.0559 -4.46583 36.0551 -4.46536 36.0553C-4.46535 36.0553 -4.4653 36.0553 -4.46526 36.0553C-4.46521 36.0553 -4.46509 36.0554 -4.46501 36.0554C-4.4648 36.0555 -4.46448 36.0556 -4.46408 36.0557C-4.4633 36.056 -4.46203 36.0564 -4.46048 36.0569C-4.45744 36.0579 -4.45246 36.0596 -4.44631 36.0616C-4.43431 36.0656 -4.4144 36.0722 -4.38976 36.0804C-4.36495 36.0885 -4.33254 36.0992 -4.29456 36.1115C-4.25652 36.1239 -4.21072 36.1387 -4.15872 36.1553C-4.1067 36.1719 -4.04645 36.191 -3.97933 36.2118C-3.91222 36.2327 -3.83617 36.256 -3.75244 36.2812C-3.66874 36.3064 -3.57511 36.334 -3.47282 36.3635C-3.37057 36.3929 -3.25711 36.4249 -3.13373 36.4585C-3.01041 36.4921 -2.87421 36.5283 -2.72653 36.5659C-2.57894 36.6035 -2.41631 36.6435 -2.24024 36.6846C-2.15196 36.7052 -2.05954 36.7263 -1.9632 36.7476C-1.86687 36.769 -1.76601 36.7907 -1.66088 36.8126C-1.55575 36.8346 -1.44567 36.8568 -1.33092 36.8792C-1.21617 36.9015 -1.09599 36.9241 -0.970678 36.9466C-0.845377 36.969 -0.714102 36.9916 -0.577182 37.0139C-0.440277 37.0363 -0.296785 37.0585 -0.147076 37.0802C0.00261545 37.102 0.159583 37.1234 0.323408 37.144C0.487212 37.1646 0.659066 37.1846 0.838491 37.2034C1.01789 37.2222 1.20621 37.24 1.40289 37.2562C1.59954 37.2723 1.80607 37.2869 2.02182 37.2992C2.23756 37.3115 2.46422 37.3216 2.70106 37.3287C2.93787 37.3358 3.18675 37.3398 3.44684 37.3398V-12.6602ZM3.43414 37.3367C6.00666 37.3367 7.98514 36.9246 8.50023 36.818C9.31738 36.649 9.95922 36.4729 10.3043 36.3743C11.0046 36.1742 11.5439 35.9862 11.76 35.9099C12.2441 35.7391 12.6176 35.5899 12.7328 35.5438C12.8997 35.4771 13.0332 35.4216 13.1094 35.3897C13.1523 35.3717 13.1903 35.3557 13.2222 35.3421C13.2384 35.3353 13.2536 35.3288 13.2677 35.3228C13.2748 35.3198 13.2816 35.3168 13.2882 35.314C13.2915 35.3126 13.2948 35.3112 13.298 35.3098C13.2996 35.3092 13.3012 35.3085 13.3028 35.3078C13.3035 35.3075 13.3043 35.3071 13.3051 35.3068C13.3055 35.3066 13.3061 35.3064 13.3063 35.3063C13.3069 35.3061 13.3074 35.3058 3.45953 12.3271C-6.38838 -10.6515 -6.38779 -10.6518 -6.38721 -10.652C-6.38702 -10.6521 -6.38644 -10.6523 -6.38605 -10.6525C-6.38527 -10.6528 -6.38449 -10.6532 -6.3837 -10.6535C-6.38213 -10.6542 -6.38056 -10.6549 -6.37897 -10.6555C-6.37579 -10.6569 -6.37257 -10.6583 -6.3693 -10.6597C-6.36278 -10.6625 -6.35606 -10.6653 -6.34915 -10.6683C-6.33538 -10.6742 -6.32067 -10.6804 -6.30511 -10.687C-6.27442 -10.7 -6.23817 -10.7153 -6.19738 -10.7324C-6.12545 -10.7625 -5.99766 -10.8156 -5.83671 -10.88C-5.7275 -10.9237 -5.36017 -11.0705 -4.88108 -11.2396C-4.66749 -11.315 -4.13048 -11.5022 -3.43198 -11.7018C-3.08785 -11.8001 -2.44681 -11.976 -1.63033 -12.1449C-1.11592 -12.2514 0.862021 -12.6633 3.43414 -12.6633V37.3367ZM14.6399 34.6878L14.6653 34.6751L-7.69542 -10.0462L-7.72081 -10.0335L14.6399 34.6878ZM12.263 35.7227L12.2884 35.7132L-5.26777 -11.1033L-5.29316 -11.0938L12.263 35.7227ZM3.51031 12.3049C13.2164 35.3439 13.2164 35.3439 13.2164 35.3438C13.2164 35.3438 13.2165 35.3438 13.2166 35.3438C13.2167 35.3437 13.2169 35.3437 13.2171 35.3435C13.2176 35.3433 13.2184 35.343 13.2194 35.3426C13.2215 35.3417 13.2245 35.3404 13.2286 35.3387C13.2367 35.3353 13.2488 35.3302 13.2648 35.3234C13.2969 35.31 13.3444 35.2899 13.4064 35.2638C13.5305 35.2115 13.7126 35.1348 13.9446 35.0371C14.4086 34.8416 15.072 34.5621 15.87 34.226C17.4659 33.5538 19.5994 32.6552 21.7501 31.7495L2.34572 -14.3316C0.192712 -13.425 -1.94261 -12.5256 -3.53953 -11.8529C-4.33803 -11.5166 -5.00201 -11.2369 -5.46639 -11.0413C-5.69859 -10.9434 -5.88088 -10.8666 -6.00515 -10.8143C-6.06729 -10.7881 -6.11491 -10.7681 -6.14702 -10.7545C-6.16307 -10.7478 -6.17524 -10.7426 -6.18341 -10.7392C-6.18749 -10.7375 -6.19057 -10.7362 -6.19263 -10.7353C-6.19366 -10.7349 -6.19444 -10.7346 -6.19496 -10.7343C-6.19522 -10.7342 -6.19541 -10.7341 -6.19554 -10.7341C-6.19561 -10.7341 -6.19566 -10.734 -6.19569 -10.734C-6.19573 -10.734 -6.19574 -10.734 3.51031 12.3049ZM21.7524 31.7486C23.9008 30.8436 26.0841 29.9244 27.7643 29.2152L8.32227 -16.85C6.66361 -16.15 4.50505 -15.2411 2.34345 -14.3306L21.7524 31.7486ZM27.7271 29.2309C28.5445 28.8875 29.255 28.5901 29.7677 28.3759C30.0241 28.2687 30.2293 28.1832 30.3721 28.1237C30.5733 28.0398 30.5611 28.0452 30.4829 28.0772L11.5514 -18.2002C11.349 -18.1174 9.99384 -17.5524 8.35948 -16.8657L27.7271 29.2309ZM29.9171 28.3007C30.558 28.0565 31.3491 27.7258 32.2318 27.2845C32.6762 27.0623 33.022 26.8727 33.2011 26.7732C33.6422 26.5281 32.8839 26.9579 32.2459 27.2769C31.2293 27.7852 29.6595 28.485 27.6481 29.0335C25.7376 29.5546 24.1387 29.7449 23.1522 29.8271C22.2626 29.9013 21.5644 29.909 21.4098 29.911C21.2144 29.9136 21.0324 29.9131 21.0997 29.9131V-20.0869C21.0993 -20.0869 21.0968 -20.0869 21.0941 -20.0869C21.0912 -20.0869 21.0865 -20.0869 21.081 -20.0869C21.0705 -20.0869 21.0511 -20.0869 21.027 -20.0868C20.9858 -20.0867 20.8865 -20.0864 20.7605 -20.0848C20.5984 -20.0827 19.8943 -20.0747 18.9999 -20.0002C18.0087 -19.9176 16.4061 -19.7266 14.4923 -19.2047C12.4777 -18.6552 10.905 -17.9543 9.88521 -17.4444C9.24405 -17.1238 8.48226 -16.6921 8.91889 -16.9346C9.09353 -17.0317 9.43392 -17.2183 9.87109 -17.4369C10.7395 -17.8711 11.5096 -18.1922 12.1172 -18.4237L29.9171 28.3007Z" fill="white" mask="url(#path-1-inside-1_295_230)"/>
</svg>
