<svg width="23" height="13" viewBox="0 0 23 13" fill="none" xmlns="http://www.w3.org/2000/svg">
<path d="M22.7267 5.87134L16.8088 0.259967C16.4432 -0.0866558 15.857 -0.0866558 15.4914 0.259967C15.1258 0.60659 15.1258 1.16249 15.4914 1.50912L19.8229 5.61627H0.931139C0.41384 5.61627 0 6.00868 0 6.49918C0 6.98969 0.41384 7.38209 0.931139 7.38209H19.8229L15.4914 11.4892C15.1258 11.8359 15.1258 12.3918 15.4914 12.7384C15.6707 12.9084 15.9121 13 16.1466 13C16.3811 13 16.6226 12.915 16.8019 12.7384L22.7198 7.12703C23.0922 6.77386 23.0922 6.21142 22.7267 5.87134Z" fill="white"/>
</svg>
