<svg width="16" height="16" viewBox="0 0 16 16" fill="none" xmlns="http://www.w3.org/2000/svg">
<path d="M8 0C6.89583 0 5.85938 0.208333 4.89062 0.625C3.91146 1.04167 3.0599 1.61198 2.33594 2.33594C1.61198 3.0599 1.04167 3.91146 0.625 4.89062C0.208333 5.85938 0 6.89583 0 8C0 9.10417 0.208333 10.1406 0.625 11.1094C1.04167 12.0885 1.61198 12.9401 2.33594 13.6641C3.0599 14.388 3.91146 14.9583 4.89062 15.375C5.85938 15.7917 6.89583 16 8 16C9.10417 16 10.1406 15.7917 11.1094 15.375C12.0885 14.9583 12.9401 14.388 13.6641 13.6641C14.388 12.9401 14.9583 12.0885 15.375 11.1094C15.7917 10.1406 16 9.10417 16 8C16 6.89583 15.7917 5.85938 15.375 4.89062C14.9583 3.91146 14.388 3.0599 13.6641 2.33594C12.9401 1.61198 12.0885 1.04167 11.1094 0.625C10.1406 0.208333 9.10417 0 8 0ZM12.5625 6.17188L6.96875 11.7656C6.89583 11.8385 6.8099 11.8958 6.71094 11.9375C6.61198 11.9792 6.51042 12 6.40625 12C6.29167 12 6.1849 11.9792 6.08594 11.9375C5.98698 11.8958 5.90104 11.8385 5.82812 11.7656L3.4375 9.35938C3.36458 9.28646 3.30729 9.20312 3.26562 9.10938C3.22396 9.01562 3.20312 8.91146 3.20312 8.79688C3.20312 8.57812 3.28125 8.39062 3.4375 8.23438C3.59375 8.07812 3.78125 8 4 8C4.11458 8 4.21875 8.02083 4.3125 8.0625C4.40625 8.10417 4.48958 8.16146 4.5625 8.23438L6.40625 10.0625L11.4375 5.03125C11.5104 4.95833 11.5938 4.90104 11.6875 4.85938C11.7812 4.81771 11.8854 4.79688 12 4.79688C12.2188 4.79688 12.4062 4.875 12.5625 5.03125C12.7188 5.1875 12.7969 5.375 12.7969 5.59375C12.7969 5.70833 12.776 5.8151 12.7344 5.91406C12.6927 6.01302 12.6354 6.09896 12.5625 6.17188Z" fill="#ECCD96"/>
</svg>
