<svg width="20" height="20" viewBox="0 0 20 20" fill="none" xmlns="http://www.w3.org/2000/svg">
<mask id="mask0_285_141" style="mask-type:luminance" maskUnits="userSpaceOnUse" x="0" y="0" width="20" height="21">
<path d="M19.802 0.00195312H0V20.002H19.802V0.00195312Z" fill="white"/>
</mask>
<g mask="url(#mask0_285_141)">
<path d="M0 9.60195C0 5.07647 0 2.81373 1.39197 1.40784C2.78394 0.00195312 5.02428 0.00195312 9.50495 0.00195312H10.297C14.7777 0.00195312 17.018 0.00195312 18.41 1.40784C19.802 2.81373 19.802 5.07647 19.802 9.60195V10.402C19.802 14.9274 19.802 17.1902 18.41 18.5961C17.018 20.002 14.7777 20.002 10.297 20.002H9.50495C5.02428 20.002 2.78394 20.002 1.39197 18.5961C0 17.1902 0 14.9274 0 10.402V9.60195Z" fill="#FF9900"/>
<path d="M10.5363 14.4104C6.02306 14.4104 3.44882 11.2854 3.34155 6.08545H5.60229C5.67654 9.90211 7.34318 11.5188 8.6633 11.8521V6.08545H10.7921V9.37709C12.0957 9.23543 13.4652 7.73545 13.9272 6.08545H16.056C15.7012 8.11879 14.2161 9.61877 13.16 10.2354C14.2161 10.7354 15.9076 12.0438 16.5511 14.4104H14.2078C13.7045 12.8271 12.4505 11.6021 10.7921 11.4354V14.4104H10.5363Z" fill="white"/>
</g>
</svg>
