<svg width="21" height="22" viewBox="0 0 21 22" fill="none" xmlns="http://www.w3.org/2000/svg">
<g clip-path="url(#clip0_285_31)">
<path d="M15.5388 12.4718C15.4979 12.4521 13.9669 11.6983 13.6949 11.6004C13.5838 11.5605 13.4648 11.5215 13.3383 11.5215C13.1316 11.5215 12.9579 11.6246 12.8226 11.8269C12.6697 12.0542 12.2068 12.5954 12.0637 12.7571C12.045 12.7784 12.0195 12.8039 12.0043 12.8039C11.9906 12.8039 11.7536 12.7063 11.6819 12.6752C10.0396 11.9618 8.79304 10.2463 8.62211 9.95697C8.5977 9.91538 8.59667 9.89649 8.59647 9.89649C8.60247 9.87447 8.6577 9.8191 8.6862 9.79054C8.76958 9.70804 8.85992 9.59929 8.94733 9.49408C8.98872 9.44424 9.03017 9.39433 9.07088 9.34729C9.1977 9.19974 9.25415 9.0852 9.3196 8.95251L9.3539 8.88358C9.51372 8.56606 9.37722 8.29811 9.3331 8.21158C9.2969 8.13917 8.65047 6.57904 8.58174 6.41513C8.41647 6.01961 8.19808 5.83545 7.89461 5.83545C7.86645 5.83545 7.89461 5.83545 7.77652 5.84043C7.63272 5.84649 6.84966 5.94959 6.50343 6.16784C6.13627 6.39931 5.51514 7.13718 5.51514 8.43481C5.51514 9.60269 6.25627 10.7054 6.57448 11.1248C6.58238 11.1354 6.59691 11.1568 6.61797 11.1876C7.83659 12.9673 9.35574 14.2862 10.8958 14.9014C12.3784 15.4937 13.0804 15.5621 13.4796 15.5621C13.4796 15.5621 13.4796 15.5621 13.4796 15.5621C13.6474 15.5621 13.7816 15.549 13.9 15.5373L13.9752 15.5301C14.4874 15.4847 15.6129 14.9015 15.8689 14.19C16.0706 13.6296 16.1238 13.0174 15.9896 12.7952C15.8977 12.6441 15.7393 12.5681 15.5388 12.4718Z" fill="white"/>
<path d="M10.6864 0.404785C4.99895 0.404785 0.371848 4.9971 0.371848 10.6418C0.371848 12.4675 0.86044 14.2546 1.78601 15.8187L0.0144387 21.0445C-0.0185613 21.1419 0.00598417 21.2497 0.0780525 21.323C0.130075 21.3761 0.200644 21.4048 0.272712 21.4048C0.300326 21.4048 0.328144 21.4006 0.35528 21.392L5.80438 19.6604C7.29552 20.4571 8.98084 20.8777 10.6865 20.8777C16.3734 20.8777 21 16.2859 21 10.6418C21 4.9971 16.3734 0.404785 10.6864 0.404785ZM10.6864 18.7453C9.08148 18.7453 7.527 18.2819 6.19077 17.405C6.14583 17.3755 6.09368 17.3604 6.04118 17.3604C6.01343 17.3604 5.98561 17.3646 5.95854 17.3732L3.22888 18.2409L4.11006 15.6412C4.13856 15.557 4.12431 15.4642 4.07181 15.3925C3.05426 14.0021 2.51637 12.3594 2.51637 10.6418C2.51637 6.17297 6.18143 2.53724 10.6863 2.53724C15.1907 2.53724 18.8554 6.17297 18.8554 10.6418C18.8554 15.1101 15.1908 18.7453 10.6864 18.7453Z" fill="white"/>
</g>
<defs>
<clipPath id="clip0_285_31">
<rect width="21" height="21" fill="white" transform="translate(0 0.404785)"/>
</clipPath>
</defs>
</svg>
