<svg width="21" height="22" viewBox="0 0 21 22" fill="none" xmlns="http://www.w3.org/2000/svg">
<path d="M15.5388 12.4712C15.4979 12.4515 13.9669 11.6976 13.6949 11.5997C13.5838 11.5599 13.4648 11.5209 13.3383 11.5209C13.1316 11.5209 12.9579 11.6239 12.8226 11.8263C12.6697 12.0536 12.2068 12.5948 12.0637 12.7564C12.045 12.7778 12.0195 12.8033 12.0043 12.8033C11.9906 12.8033 11.7536 12.7057 11.6819 12.6746C10.0396 11.9612 8.79304 10.2457 8.62211 9.95636C8.5977 9.91477 8.59667 9.89588 8.59647 9.89588C8.60247 9.87386 8.6577 9.81849 8.6862 9.78993C8.76958 9.70743 8.85992 9.59868 8.94733 9.49347C8.98872 9.44363 9.03017 9.39372 9.07088 9.34668C9.1977 9.19913 9.25415 9.08458 9.3196 8.9519L9.3539 8.88297C9.51372 8.56545 9.37722 8.29749 9.3331 8.21097C9.2969 8.13856 8.65047 6.57843 8.58174 6.41452C8.41647 6.019 8.19808 5.83484 7.89461 5.83484C7.86645 5.83484 7.89461 5.83484 7.77652 5.83982C7.63272 5.84588 6.84966 5.94898 6.50343 6.16722C6.13627 6.3987 5.51514 7.13656 5.51514 8.4342C5.51514 9.60208 6.25627 10.7048 6.57448 11.1242C6.58238 11.1347 6.59691 11.1562 6.61797 11.187C7.83659 12.9667 9.35574 14.2856 10.8958 14.9008C12.3784 15.4931 13.0804 15.5615 13.4796 15.5615C13.4796 15.5615 13.4796 15.5615 13.4796 15.5615C13.6474 15.5615 13.7816 15.5484 13.9 15.5367L13.9752 15.5295C14.4874 15.4841 15.6129 14.9009 15.8689 14.1894C16.0706 13.629 16.1238 13.0168 15.9896 12.7946C15.8977 12.6435 15.7393 12.5674 15.5388 12.4712Z" fill="white"/>
<path d="M2.25954 15.9788L2.33328 15.7612L2.21631 15.5636C1.33653 14.0769 0.871848 12.3777 0.871848 10.6413C0.871848 5.27631 5.27152 0.904297 10.6864 0.904297C16.1008 0.904297 20.5 5.27626 20.5 10.6413C20.5 16.0057 16.1008 20.3772 10.6865 20.3772C9.06238 20.3772 7.45807 19.9766 6.04 19.2189L5.85397 19.1195L5.65296 19.1834L0.632296 20.7788L2.25954 15.9788ZM2.75534 18.0799L2.43787 19.0165L3.38034 18.7169L6.00779 17.8817C7.40516 18.7739 9.02085 19.2448 10.6864 19.2448C15.4632 19.2448 19.3554 15.3895 19.3554 10.6413C19.3554 5.89261 15.4631 2.03675 10.6863 2.03675C5.90908 2.03675 2.01637 5.89256 2.01637 10.6413C2.01637 12.426 2.5638 14.136 3.59891 15.5911L2.75534 18.0799ZM3.66834 15.6873C3.66799 15.6869 3.66765 15.6864 3.66731 15.6859C3.66765 15.6864 3.66798 15.6869 3.66832 15.6873L3.66834 15.6873Z" fill="white" stroke="white"/>
</svg>
