<svg width="17" height="14" viewBox="0 0 17 14" fill="none" xmlns="http://www.w3.org/2000/svg">
<path d="M14.8984 8.23633H5.95703L8.5 10.7793C8.64583 10.916 8.75977 11.0824 8.8418 11.2783C8.92383 11.4743 8.96484 11.6816 8.96484 11.9004C8.96484 12.1283 8.92383 12.3379 8.8418 12.5293C8.75977 12.7207 8.64583 12.8893 8.5 13.0352C8.35417 13.181 8.18555 13.2949 7.99414 13.377C7.80273 13.459 7.5931 13.5 7.36523 13.5C7.14648 13.5 6.93913 13.459 6.74316 13.377C6.5472 13.2949 6.38086 13.181 6.24414 13.0352L0.966797 7.77148C0.820964 7.62565 0.707031 7.45475 0.625 7.25879C0.542969 7.06283 0.501953 6.85547 0.501953 6.63672C0.501953 6.41797 0.542969 6.21061 0.625 6.01465C0.707031 5.81869 0.820964 5.64779 0.966797 5.50195L6.24414 0.238281C6.38086 0.0924482 6.5472 -0.0214844 6.74316 -0.103516C6.93913 -0.185547 7.14648 -0.226562 7.36523 -0.226562C7.5931 -0.226562 7.80273 -0.185547 7.99414 -0.103516C8.18555 -0.0214844 8.35417 0.0924482 8.5 0.238281C8.64583 0.384114 8.75977 0.552734 8.8418 0.744141C8.92383 0.935547 8.96484 1.14518 8.96484 1.37305C8.96484 1.5918 8.92383 1.79688 8.8418 1.98828C8.75977 2.17969 8.64583 2.34831 8.5 2.49414L5.95703 5.03711H14.8984C15.3451 5.03711 15.7233 5.19434 16.0332 5.50879C16.3431 5.82324 16.498 6.19922 16.498 6.63672C16.498 7.07422 16.3431 7.4502 16.0332 7.76465C15.7233 8.0791 15.3451 8.23633 14.8984 8.23633Z" fill="#ECCD96"/>
</svg>
